<?xml version="1.0" encoding="UTF-8"?>
<svg id="Layer_1" xmlns="http://www.w3.org/2000/svg" version="1.1" viewBox="0 0 60 40">
  <!-- Generator: Adobe Illustrator 29.4.0, SVG Export Plug-In . SVG Version: 2.1.0 Build 152)  -->
  <defs>
    <style>
      .st0 {
        fill: #757575;
        fill-rule: evenodd;
      }
    </style>
  </defs>
  <path class="st0" d="M.7,15.1c.9-.7,2.4-.7,3.3,0h0l26.1,20.5,26.1-20.5c.9-.7,2.4-.7,3.3,0s.9,1.9,0,2.6h0l-27.7,21.8c-.9.7-2.4.7-3.3,0h0L.7,17.6c-.9-.7-.9-1.9,0-2.6h0"/>
  <path class="st0" d="M.7.5C1.6-.2,3-.2,3.9.5h0l26.1,20.5L56,.5c.9-.7,2.4-.7,3.3,0,.9.7.9,1.9,0,2.6h0l-27.7,21.8c-.9.7-2.4.7-3.3,0h0L.7,3.1C-.2,2.4-.2,1.2.7.5h0"/>
</svg>